<?xml version="1.0" standalone="no"?>
<!DOCTYPE svg PUBLIC "-//W3C//DTD SVG 20010904//EN"
 "http://www.w3.org/TR/2001/REC-SVG-20010904/DTD/svg10.dtd">
<svg version="1.0" xmlns="http://www.w3.org/2000/svg"
 width="300.000000pt" height="300.000000pt" viewBox="0 0 300.000000 300.000000"
 preserveAspectRatio="xMidYMid meet">
<metadata>
Created by potrace 1.10, written by Peter Selinger 2001-2011
</metadata>
<g transform="translate(0.000000,300.000000) scale(0.100000,-0.100000)"
fill="#000000" stroke="none">
<path d="M2038 2898 c-9 -7 -49 -89 -88 -182 l-72 -170 1 -103 2 -103 -64 0
c-54 0 -67 3 -87 24 -26 29 -90 60 -139 70 -22 4 -46 20 -68 45 -35 41 -122
91 -159 91 -15 0 -25 9 -32 29 -6 17 -29 50 -52 74 -128 140 -365 110 -448
-57 -17 -33 -29 -46 -45 -46 -36 0 -104 -39 -147 -86 -32 -35 -51 -47 -91 -55
-99 -21 -185 -103 -210 -201 -10 -36 -18 -48 -37 -53 -42 -10 -127 -104 -142
-158 -8 -26 -20 -47 -27 -47 -7 0 -19 -10 -27 -22 -12 -20 -10 -49 14 -233 28
-206 28 -209 10 -236 -30 -41 -42 -111 -30 -166 13 -54 42 -106 72 -127 18
-13 25 -45 54 -268 19 -139 34 -254 34 -255 0 -1 -16 -5 -37 -9 -49 -9 -110
-66 -124 -116 -17 -66 13 -150 64 -177 20 -10 26 -23 29 -61 7 -74 48 -133
119 -175 l60 -35 1250 0 c1236 0 1249 0 1269 20 19 19 20 33 20 356 0 212 -4
342 -10 355 -10 17 -22 19 -141 19 -131 0 -131 0 -126 23 3 12 22 246 43 520
l39 498 84 -2 c109 -2 111 1 111 138 0 137 -7 145 -122 142 l-81 -2 -19 78
c-10 43 -23 84 -29 92 -9 10 -65 13 -258 13 l-246 0 3 97 c4 96 6 102 73 261
90 211 90 212 -80 212 -63 0 -103 -4 -113 -12z m52 -48 c0 -5 -4 -10 -9 -10
-6 0 -21 -19 -35 -42 -31 -52 -33 -46 -6 16 11 26 26 46 35 46 8 0 15 -4 15
-10z m154 1 c6 -9 -31 -101 -40 -101 -2 0 -2 11 2 25 4 16 -1 34 -16 55 l-21
30 35 0 c19 0 37 -4 40 -9z m-124 -176 c-60 -138 -60 -139 -60 -237 l0 -98
-45 0 -45 0 0 93 c0 90 1 95 60 232 l59 140 43 5 c24 3 44 5 45 4 2 0 -24 -63
-57 -139z m-1191 -23 c-18 -16 -44 -51 -59 -78 -18 -36 -32 -50 -50 -52 -23
-3 -23 -1 13 32 20 20 37 40 37 46 0 12 81 92 87 86 3 -3 -10 -18 -28 -34z
m328 -19 c16 -19 41 -51 57 -70 29 -34 31 -48 4 -38 -8 3 -25 28 -37 55 -12
28 -39 64 -59 81 -20 17 -27 26 -15 20 12 -6 35 -28 50 -48z m-104 23 c41 -17
96 -79 104 -117 7 -38 24 -51 84 -60 59 -9 111 -45 135 -92 21 -41 31 -47 76
-47 94 0 178 -78 178 -165 0 -38 28 -75 58 -75 29 0 86 -45 110 -89 l23 -41
-129 0 -130 0 15 42 c54 159 -138 300 -279 204 -71 -47 -104 -139 -74 -209
l15 -37 -149 0 -149 0 15 28 c7 15 14 35 14 44 0 10 18 35 40 57 48 48 62 81
58 141 l-2 45 36 3 c21 2 47 -2 59 -8 19 -11 26 -8 53 19 l31 32 -25 19 c-44
33 -105 43 -165 25 -47 -13 -56 -13 -81 0 -62 32 -163 4 -197 -55 -13 -21 -26
-30 -43 -30 -32 0 -93 -31 -120 -62 -54 -58 -70 -151 -40 -223 l15 -35 -225 0
c-123 0 -224 2 -224 5 0 4 7 19 15 34 20 40 69 78 115 92 41 12 44 17 55 84
14 90 90 155 179 155 42 0 48 3 70 38 34 54 80 90 124 97 75 12 83 16 93 43
28 70 47 98 88 124 51 32 119 38 174 14z m802 -326 c14 -13 25 -27 25 -32 0
-4 -25 -8 -55 -8 -30 0 -55 3 -55 6 0 3 11 19 25 36 22 26 25 40 27 121 l2 92
3 -96 c3 -87 6 -98 28 -119z m-1234 156 c-18 -13 -44 -39 -57 -57 -27 -37 -50
-53 -57 -42 -6 9 121 123 137 123 5 0 -5 -11 -23 -24z m798 -60 c22 -22 29
-36 20 -36 -7 0 -36 26 -64 57 -38 44 -43 52 -20 36 17 -12 46 -37 64 -57z
m641 -128 c0 -5 -27 -8 -61 -8 l-61 0 31 29 c17 16 31 35 31 42 0 13 59 -49
60 -63z m-1711 15 c-18 -21 -37 -42 -41 -47 -5 -6 -8 -6 -8 0 0 15 60 84 73
84 6 0 -5 -17 -24 -37z m611 23 c35 -9 62 -11 78 -5 45 17 55 10 23 -17 -26
-22 -31 -33 -31 -71 0 -52 -10 -73 -61 -131 -28 -33 -39 -55 -44 -94 -7 -46
-5 -54 15 -70 19 -15 42 -18 155 -18 164 0 165 1 168 119 2 76 4 82 33 112 58
58 153 57 210 -2 27 -28 29 -37 31 -110 2 -83 11 -105 47 -119 17 -6 14 -8
-16 -14 -71 -13 -70 -11 -103 -421 -9 -110 -22 -281 -30 -380 -20 -243 -20
-268 5 -290 11 -10 20 -22 20 -27 0 -4 -119 -8 -265 -8 -146 0 -265 3 -265 6
0 3 9 17 20 31 13 17 20 41 20 68 0 36 -5 48 -34 73 l-34 30 72 0 c116 0 211
54 255 146 35 71 24 135 -34 204 -60 72 -207 111 -312 83 -47 -13 -134 -86
-158 -133 -48 -97 11 -225 128 -279 27 -12 35 -19 22 -19 -11 0 -36 10 -55 21
-87 52 -120 108 -120 202 0 56 4 71 33 113 33 51 84 86 152 106 22 6 50 23 63
36 21 24 22 32 22 206 -1 234 -3 238 -168 236 -53 -1 -128 -1 -166 -1 l-70 1
27 28 c24 25 26 32 17 62 -32 112 18 212 118 240 21 5 51 24 67 41 28 29 76
58 100 59 6 0 35 -6 65 -14z m732 -36 c33 0 35 -10 8 -35 -65 -59 33 -154 159
-155 l34 0 -21 -23 c-35 -37 -24 -95 28 -142 21 -19 37 -20 364 -21 187 -1
345 -2 349 -3 5 -1 -3 -15 -17 -32 -14 -17 -27 -38 -27 -47 -1 -9 -3 -33 -5
-52 -3 -39 -18 -233 -35 -452 -5 -79 -14 -190 -20 -247 -15 -173 -12 -245 11
-266 11 -10 20 -22 20 -27 0 -9 -799 -10 -813 -1 -5 3 3 17 17 32 23 24 28 45
56 256 16 127 39 293 50 370 46 330 53 397 40 420 -14 26 -49 45 -88 46 -25 0
-26 1 -6 9 38 15 54 48 42 82 -14 40 -78 104 -122 122 -25 10 -37 23 -42 43
-12 55 -16 63 -50 113 l-35 50 38 -20 c21 -11 50 -20 65 -20z m838 -19 c18
-35 11 -45 -15 -21 -14 13 -25 27 -25 32 0 16 29 8 40 -11z m-31 -68 c6 -21
11 -42 11 -48 0 -7 -127 -9 -366 -7 -301 2 -372 5 -395 18 -16 8 -29 21 -29
28 0 8 -3 21 -6 30 -6 14 32 16 384 16 l391 0 10 -37z m-2217 -38 c-6 -19 -18
-32 -38 -39 -41 -15 -77 -45 -108 -91 -32 -46 -32 -62 -4 -92 21 -22 26 -23
205 -23 101 0 183 -4 183 -8 0 -5 -9 -17 -20 -27 -17 -15 -20 -30 -19 -94 1
-143 12 -191 47 -220 l31 -26 -26 -25 -25 -24 7 -143 c3 -78 8 -154 10 -170 2
-15 6 -66 10 -113 48 -636 75 -879 100 -900 38 -31 53 71 54 374 1 126 4 233
7 238 3 4 16 8 30 8 l25 0 -26 -34 -26 -34 3 -270 3 -270 24 -26 24 -26 -54
-1 c-270 -2 -421 3 -452 16 -34 14 -112 93 -102 103 3 3 21 -13 41 -37 45 -52
81 -71 134 -71 52 0 87 18 133 69 42 46 55 96 38 152 -24 80 -91 131 -173 131
-42 0 -50 4 -62 27 -43 83 -140 91 -186 16 -11 -18 -20 -42 -20 -55 0 -30 35
-77 71 -95 20 -11 29 -23 29 -40 0 -14 -4 -25 -10 -25 -5 0 -10 3 -10 8 0 4
-18 27 -40 52 -46 50 -55 75 -47 127 8 45 31 71 84 94 70 30 76 46 58 180 -9
63 -20 152 -26 199 -16 142 -28 188 -60 224 -61 70 -75 155 -39 235 25 55 25
87 -2 299 l-21 172 25 28 c15 15 36 49 48 75 16 35 43 64 92 104 38 30 72 61
75 69 9 25 13 10 5 -21z m2321 -67 c-5 -10 -87 -11 -96 -2 -4 4 6 21 21 39
l27 32 26 -31 c15 -17 25 -34 22 -38z m157 -29 c0 -27 -2 -30 -16 -19 -8 8
-20 22 -25 32 -8 15 -6 18 16 18 21 0 25 -4 25 -31z m-50 -64 l0 -45 -399 0
-398 0 -17 43 c-9 23 -16 45 -16 47 0 3 187 4 415 2 l415 -2 0 -45z m50 -60
c0 -31 -3 -35 -25 -35 -14 0 -25 3 -25 6 0 6 42 62 48 63 1 1 2 -15 2 -34z
m-1830 -268 l0 -192 -51 -12 c-129 -31 -229 -146 -229 -263 0 -119 92 -227
228 -266 l52 -15 0 -50 0 -49 -129 0 c-95 0 -131 -3 -140 -13 -7 -9 -12 -118
-13 -333 l-3 -319 -49 635 c-26 349 -51 650 -53 668 -5 26 -2 32 13 32 35 0
139 57 182 100 23 23 42 45 42 49 0 3 -16 16 -36 29 l-35 23 -44 -40 c-38 -35
-101 -71 -125 -71 -4 0 -10 48 -14 108 -4 59 -9 122 -13 140 l-5 32 211 0 211
0 0 -193z m930 180 c0 -6 -29 -234 -65 -505 -36 -271 -65 -499 -65 -507 0 -13
-23 -15 -141 -15 -109 0 -140 3 -136 13 2 6 21 235 42 507 20 272 39 501 41
508 5 18 324 18 324 -1z m-772 -483 c153 -63 164 -241 20 -319 -135 -74 -323
-14 -357 112 -42 157 160 281 337 207z m1670 -619 l4 -30 -26 24 c-32 30 -33
43 -3 39 16 -2 23 -11 25 -33z m-46 -295 l-3 -280 -399 0 -400 0 -14 23 c-7
12 -22 44 -31 70 -31 82 -104 122 -178 98 -45 -15 -80 -55 -102 -116 -10 -27
-23 -56 -28 -62 -7 -10 -102 -13 -413 -13 l-404 0 0 280 0 280 988 0 987 0 -3
-280z m-2516 82 c7 -4 20 -25 31 -47 18 -39 20 -40 62 -37 61 4 105 -13 141
-54 24 -28 30 -44 30 -80 0 -88 -55 -144 -142 -144 -84 0 -142 73 -136 171 3
39 0 44 -27 57 -16 8 -38 22 -47 30 -23 19 -23 70 -1 94 16 18 68 24 89 10z
m1595 -228 c6 -3 24 -34 39 -68 16 -33 40 -72 55 -86 l27 -25 -109 -5 c-59 -3
-143 -4 -186 -2 l-78 4 24 18 c13 11 38 47 54 82 32 67 56 93 88 100 21 4 65
-5 86 -18z m969 -154 c0 -26 -4 -30 -26 -30 l-25 0 21 30 c12 17 23 30 26 30
2 0 4 -13 4 -30z"/>
<path d="M947 2310 c-14 -11 -29 -29 -32 -40 -7 -21 -39 -35 -68 -31 -49 7
-137 -94 -137 -158 0 -65 90 -151 158 -151 68 0 152 84 152 153 0 17 14 36 45
61 40 34 45 42 45 80 0 85 -98 137 -163 86z m108 -35 c14 -13 25 -36 25 -50 0
-26 -31 -65 -52 -65 -27 0 -48 -34 -48 -76 0 -59 -38 -103 -96 -111 -97 -13
-164 80 -119 167 21 41 53 60 102 60 42 0 73 19 73 45 0 18 48 55 72 55 10 0
30 -11 43 -25z"/>
<path d="M1437 2178 c-33 -25 -67 -82 -67 -113 0 -43 37 -96 84 -119 32 -16
44 -17 75 -8 109 33 134 166 42 231 -33 24 -107 28 -134 9z m131 -54 c29 -33
30 -92 2 -122 -58 -62 -160 -25 -160 58 0 90 99 130 158 64z"/>
<path d="M1148 1903 c-14 -2 -31 -10 -37 -17 -8 -9 -11 -78 -9 -207 l3 -193
25 -13 c14 -7 53 -24 88 -39 209 -89 204 -343 -8 -437 -19 -8 -45 -18 -57 -22
-39 -11 -53 -33 -53 -85 0 -74 13 -80 188 -80 206 0 203 -2 217 175 3 44 8
105 11 135 2 30 9 109 14 175 5 66 14 176 20 245 24 289 24 313 2 340 -20 24
-21 24 -198 26 -99 1 -191 0 -206 -3z m390 -95 c-15 -220 -71 -945 -74 -955
-3 -10 -46 -13 -174 -13 l-170 0 0 49 c0 50 9 61 48 61 32 0 117 47 156 86 74
74 100 187 63 276 -33 80 -132 157 -224 176 l-38 8 -3 192 -2 192 211 0 212 0
-5 -72z"/>
<path d="M2041 1886 c-20 -21 -26 -53 -52 -252 -30 -232 -43 -333 -59 -459 -5
-38 -16 -121 -25 -184 -19 -143 -19 -137 5 -161 19 -19 33 -20 319 -20 279 0
300 1 322 19 25 20 28 37 59 426 5 72 15 184 20 250 6 66 13 174 16 241 10
176 33 164 -309 164 l-274 0 -22 -24z m579 -24 c0 -10 -9 -128 -20 -262 -10
-135 -26 -335 -35 -445 -8 -110 -18 -226 -21 -257 l-6 -58 -310 0 -310 0 5 33
c3 17 34 246 67 507 34 261 64 481 66 488 3 9 68 12 284 12 263 0 280 -1 280
-18z"/>
<path d="M2300 1548 l0 -48 45 0 45 0 0 48 0 47 -45 0 -45 0 0 -47z"/>
<path d="M2160 1360 l0 -50 45 0 45 0 0 50 0 50 -45 0 -45 0 0 -50z"/>
<path d="M2300 1173 l0 -48 45 -1 45 -1 0 49 0 48 -45 0 -45 0 0 -47z"/>
<path d="M200 1898 c-32 -17 -35 -50 -17 -190 15 -112 34 -158 65 -158 21 0
51 31 72 73 27 54 66 72 147 70 90 -3 98 7 90 105 -9 102 -17 106 -190 110
-102 2 -149 -1 -167 -10z m327 -105 c6 -49 9 -89 7 -91 -1 -2 -16 4 -33 12
-79 41 -176 -2 -215 -95 -13 -31 -42 -57 -51 -47 -2 2 -10 62 -20 133 -9 72
-19 140 -22 153 l-5 22 165 0 165 0 9 -87z"/>
<path d="M372 1640 c-16 -16 -33 -45 -36 -64 -6 -31 -12 -37 -47 -46 -45 -12
-103 -59 -125 -101 -20 -40 -17 -97 9 -149 30 -58 111 -104 169 -97 52 7 105
42 134 89 21 33 25 49 21 92 -2 28 -7 60 -11 71 -5 15 1 32 23 59 43 54 42 97
-3 142 -45 45 -92 47 -134 4z m113 -25 c14 -13 25 -36 25 -50 0 -24 -31 -65
-49 -65 -19 0 -22 -42 -6 -85 28 -73 2 -145 -65 -180 -60 -31 -147 -8 -181 49
-24 39 -25 108 -2 146 19 33 80 70 115 70 34 0 48 18 48 61 0 29 6 43 26 58
35 27 59 26 89 -4z"/>
<path d="M509 1267 c-34 -52 -86 -94 -123 -101 -139 -25 -132 0 -88 -332 25
-185 35 -224 68 -264 41 -48 77 -34 99 40 9 31 43 80 56 80 14 0 11 -32 -6
-50 -8 -9 -18 -37 -21 -61 -6 -44 -5 -45 42 -84 27 -22 54 -46 61 -55 6 -8 15
-12 19 -8 11 12 -38 76 -73 95 -18 10 -33 21 -33 25 0 19 24 66 45 88 24 25
24 26 8 63 -10 20 -22 37 -29 37 -16 0 -83 -75 -94 -106 -6 -14 -10 -36 -10
-50 0 -15 -6 -24 -15 -24 -8 0 -15 4 -15 8 0 5 -9 18 -21 31 -17 18 -25 57
-50 244 -16 122 -31 237 -34 255 l-6 32 48 0 c63 1 119 27 164 77 32 36 59 97
47 108 -2 3 -20 -19 -39 -48z"/>
<path d="M570 1279 c0 -61 58 -787 66 -819 5 -23 6 -23 16 -6 9 16 -6 283 -27
466 -2 19 -7 85 -10 145 -8 131 -23 236 -36 250 -5 5 -9 -8 -9 -36z"/>
<path d="M625 252 c-6 -4 -16 -19 -22 -34 -11 -24 -10 -29 9 -42 32 -22 58 -4
58 39 0 19 -5 35 -11 35 -6 0 -9 -14 -7 -32 2 -28 -1 -34 -19 -36 -27 -4 -28
0 -7 39 16 32 16 43 -1 31z"/>
<path d="M1105 655 c-5 -2 -22 -6 -37 -9 -37 -8 -98 -63 -114 -103 -31 -72 -5
-177 53 -219 53 -39 88 -44 312 -44 241 0 271 7 324 69 76 91 46 234 -60 287
-33 17 -65 19 -253 21 -118 1 -219 0 -225 -2z m-5 -49 c0 -2 -16 -13 -35 -25
-19 -11 -44 -35 -55 -53 -11 -19 -20 -26 -20 -17 0 25 39 70 74 85 36 15 36
15 36 10z m526 -71 c37 -89 -2 -178 -86 -199 -22 -6 -21 -5 5 10 106 59 114
153 20 237 -19 17 -19 17 13 2 21 -10 39 -30 48 -50z m-61 0 c34 -33 35 -96 1
-130 -33 -33 -64 -37 -284 -33 l-194 3 -29 33 c-39 43 -39 84 0 123 l29 29
227 0 226 0 24 -25z m-571 -76 c2 -13 5 -27 5 -31 2 -15 64 -78 76 -78 8 0 17
-4 20 -10 6 -10 -15 -5 -52 13 -26 12 -63 81 -63 117 0 29 8 23 14 -11z"/>
<path d="M2135 655 c-5 -2 -22 -6 -37 -9 -64 -14 -128 -102 -128 -175 0 -77
41 -138 115 -172 35 -16 67 -19 260 -19 193 0 225 3 260 19 164 76 145 302
-30 350 -36 10 -413 15 -440 6z m458 -58 c115 -49 101 -234 -21 -264 -21 -5
-130 -8 -243 -7 -237 2 -264 9 -297 74 -37 75 4 190 72 203 11 2 119 5 239 6
162 1 226 -2 250 -12z"/>
<path d="M2128 593 c-15 -2 -43 -22 -62 -44 -42 -46 -47 -93 -16 -144 38 -61
64 -66 309 -63 218 3 220 3 246 28 15 14 34 38 42 54 32 62 -13 147 -87 165
-37 8 -385 12 -432 4z m459 -48 c28 -20 46 -75 34 -106 -5 -13 -19 -33 -31
-44 -21 -19 -36 -20 -247 -20 l-225 0 -30 34 c-25 28 -29 39 -24 70 3 21 16
45 31 59 25 21 32 22 248 22 182 0 226 -3 244 -15z"/>
<path d="M1826 288 c-25 -35 -21 -103 6 -122 31 -22 45 -20 73 8 22 22 23 28
13 58 -12 38 -46 78 -64 78 -7 0 -20 -10 -28 -22z m54 -44 c26 -59 26 -59 -12
-58 -18 0 -33 6 -32 12 1 7 2 30 3 52 1 53 17 51 41 -6z"/>
<path d="M184 2875 c-103 -62 -120 -196 -35 -285 38 -40 105 -65 150 -57 16 3
34 -2 49 -14 82 -64 206 -30 248 68 19 45 17 82 -6 128 -11 22 -20 40 -20 42
0 7 100 -34 123 -51 l27 -20 32 31 c37 37 33 46 -39 85 -73 40 -155 52 -222
34 -53 -14 -55 -13 -73 9 -46 59 -162 74 -234 30z m9 -70 c-33 -35 -43 -53
-43 -79 0 -82 62 -139 148 -135 37 2 56 -4 86 -24 46 -32 70 -34 114 -7 35 21
52 54 52 100 0 31 -57 89 -88 91 -37 1 -53 8 -72 31 -11 12 -19 26 -20 31 0 4
-12 12 -26 18 -15 5 -24 12 -20 16 3 3 29 -8 57 -26 49 -30 53 -31 132 -25
l82 7 -22 -24 c-20 -22 -21 -31 -16 -102 5 -67 3 -80 -13 -98 -49 -54 -109
-60 -189 -19 -21 11 -57 20 -80 20 -103 0 -166 108 -119 206 14 29 53 62 75
64 3 0 -14 -20 -38 -45z m143 -10 c12 -8 27 -28 34 -45 12 -30 21 -34 71 -30
59 3 95 -67 59 -113 -30 -38 -78 -37 -113 3 -29 32 -42 35 -82 20 -32 -12 -88
8 -104 38 -34 64 9 142 78 142 20 0 46 -7 57 -15z"/>
</g>
</svg>
